<svg width="20" height="20" viewBox="0 0 20 20" fill="none" xmlns="http://www.w3.org/2000/svg">
<path d="M12.5 17.5V10.8333C12.5 10.6123 12.4122 10.4003 12.2559 10.2441C12.0997 10.0878 11.8877 10 11.6667 10H8.33334C8.11232 10 7.90037 10.0878 7.74408 10.2441C7.5878 10.4003 7.5 10.6123 7.5 10.8333V17.5" stroke="#FFD700" stroke-opacity="0.7" stroke-width="1.66667" stroke-linecap="round" stroke-linejoin="round"/>
<path d="M2.5 8.33333C2.49994 8.09089 2.55277 7.85136 2.65482 7.63143C2.75687 7.41151 2.90566 7.21649 3.09084 7.06L8.92418 2.05999C9.225 1.80575 9.60614 1.66626 10 1.66626C10.3938 1.66626 10.7751 1.80575 11.0758 2.05999L16.9092 7.06C17.0944 7.21649 17.2432 7.41151 17.3452 7.63143C17.4473 7.85136 17.5001 8.09089 17.5 8.33333V15.8333C17.5 16.2754 17.3245 16.6993 17.0119 17.0119C16.6993 17.3245 16.2754 17.5 15.8333 17.5H4.16667C3.72464 17.5 3.30071 17.3245 2.98816 17.0119C2.6756 16.6993 2.5 16.2754 2.5 15.8333V8.33333Z" stroke="#FFD700" stroke-opacity="0.7" stroke-width="1.66667" stroke-linecap="round" stroke-linejoin="round"/>
</svg>
