<svg width="18" height="18" viewBox="0 0 18 18" fill="none" xmlns="http://www.w3.org/2000/svg">
<g clip-path="url(#clip0_2_51)">
<path d="M14.2394 8.2439H3.74718C2.91937 8.2439 2.24829 8.91497 2.24829 9.74279V14.9889C2.24829 15.8167 2.91937 16.4878 3.74718 16.4878H14.2394C15.0672 16.4878 15.7383 15.8167 15.7383 14.9889V9.74279C15.7383 8.91497 15.0672 8.2439 14.2394 8.2439Z" stroke="#F0B100" stroke-opacity="0.5" stroke-width="1.49889" stroke-linecap="round" stroke-linejoin="round"/>
<path d="M5.24609 8.24392V5.24613C5.24609 4.25231 5.64089 3.29918 6.34363 2.59644C7.04637 1.8937 7.9995 1.4989 8.99333 1.4989C9.98715 1.4989 10.9403 1.8937 11.643 2.59644C12.3458 3.29918 12.7406 4.25231 12.7406 5.24613V8.24392" stroke="#F0B100" stroke-opacity="0.5" stroke-width="1.49889" stroke-linecap="round" stroke-linejoin="round"/>
</g>
<defs>
<clipPath id="clip0_2_51">
<rect width="17.9867" height="17.9867" fill="white"/>
</clipPath>
</defs>
</svg>
